<svg xmlns="http://www.w3.org/2000/svg" width="82" height="82" viewBox="0 0 82 82">
  <g id="ico-pin" transform="translate(-15193 -3100)">
    <g id="Elipse_77" data-name="Elipse 77" transform="translate(15193 3100)" fill="none" stroke="#f53c5d" stroke-linecap="round" stroke-width="3" stroke-dasharray="0 8">
      <circle cx="41" cy="41" r="41" stroke="none"/>
      <circle cx="41" cy="41" r="39.5" fill="none"/>
    </g>
    <g id="ico-ubicación" transform="translate(15209.438 3116.177)">
      <path id="Trazado_55" data-name="Trazado 55" d="M25.443,39.858A4.736,4.736,0,0,0,29.358,37.8c4.7-6.646,10.267-15.626,10.267-20.643a14.2,14.2,0,0,0-28.4,0c0,5.017,5.592,14,10.267,20.643a4.736,4.736,0,0,0,3.956,2.053Zm0-35.5A12.847,12.847,0,0,1,38.276,17.19c0,4.907-6.29,14.544-10.041,19.849a3.422,3.422,0,0,1-5.585,0C18.9,31.727,12.609,22.09,12.609,17.19A12.847,12.847,0,0,1,25.443,4.356Z" transform="translate(-0.88 0)" fill="#353b49" stroke="#353b49" stroke-width="1"/>
      <path id="Trazado_56" data-name="Trazado 56" d="M37.8,18.616A10.753,10.753,0,1,0,27.04,29.375,10.753,10.753,0,0,0,37.8,18.616Zm-20.136,0a9.384,9.384,0,1,1,9.386,9.391,9.384,9.384,0,0,1-9.386-9.391Z" transform="translate(-2.48 -1.549)" fill="#353b49" stroke="#353b49" stroke-width="1"/>
      <path id="Trazado_57" data-name="Trazado 57" d="M34.453,49.254a.7.7,0,0,0-.26,1.369c4.209.835,5.133,1.9,5.133,2.245,0,.739-2.977,2.354-10.157,2.9a60.875,60.875,0,0,1-9.213,0c-7.18-.548-10.157-2.163-10.157-2.9,0-.342.924-1.41,5.133-2.245a.7.7,0,0,0-.26-1.369c-2.847.561-6.242,1.636-6.242,3.586,0,3.148,8.74,4.066,11.417,4.271,1.513.116,3.1.178,4.716.178s3.2-.062,4.716-.178c2.676-.205,11.417-1.122,11.417-4.271C40.695,50.89,37.3,49.816,34.453,49.254Z" transform="translate(0 -14.605)" fill="#353b49" stroke="#353b49" stroke-width="1"/>
      <path id="Trazado_58" data-name="Trazado 58" d="M35.109,25.419a1.862,1.862,0,0,0,.383-1.54L34.22,17.52a1.862,1.862,0,0,0-1.786-1.492h-.055v-.315a3.333,3.333,0,0,0-6.666,0v.315h-.055a1.862,1.862,0,0,0-1.821,1.492l-1.273,6.358A1.862,1.862,0,0,0,24.384,26.1h9.288A1.862,1.862,0,0,0,35.109,25.419Zm-8.063-9.705a1.964,1.964,0,0,1,3.929,0v.315H27.047Zm-3.073,8.843a.479.479,0,0,1-.1-.4l1.273-6.358a.493.493,0,0,1,.479-.4h.055v.8a.684.684,0,1,0,1.369,0v-.8h3.929v.8a.684.684,0,0,0,1.369,0v-.8h.089a.493.493,0,0,1,.479.4l1.273,6.358a.479.479,0,0,1-.1.4.5.5,0,0,1-.376.178H24.35A.5.5,0,0,1,23.973,24.556Z" transform="translate(-4.449 -2.973)" fill="#353b49" stroke="#353b49" stroke-width="1"/>
    </g>
  </g>
</svg>
